<?xml version="1.0" encoding="UTF-8"?>
<svg version="1.1" xmlns="http://www.w3.org/2000/svg" width="68" height="68">
<path d="M0 0 C1.27472168 -0.00630432 2.54944336 -0.01260864 3.86279297 -0.019104 C5.26009254 -0.01552433 6.65739087 -0.01142239 8.0546875 -0.00683594 C9.48193427 -0.00818265 10.90918059 -0.01012323 12.33642578 -0.01263428 C15.32914595 -0.01558528 18.32174681 -0.01128876 21.31445312 -0.00195312 C25.15485123 0.00944151 28.99496982 0.00288189 32.83535767 -0.00909805 C35.7829805 -0.01631737 38.73053681 -0.01402842 41.67816162 -0.00884247 C43.09438103 -0.00750616 44.51060644 -0.00915303 45.92681885 -0.01380157 C47.90433643 -0.01886768 49.88187512 -0.00978001 51.859375 0 C53.54909424 0.00238678 53.54909424 0.00238678 55.27294922 0.00482178 C57.9296875 0.25878906 57.9296875 0.25878906 59.9296875 2.25878906 C60.18365479 4.91552734 60.18365479 4.91552734 60.18847656 8.32910156 C60.19478088 9.60382324 60.20108521 10.87854492 60.20758057 12.19189453 C60.20400089 13.58919411 60.19989896 14.98649243 60.1953125 16.38378906 C60.19665921 17.81103583 60.19859979 19.23828215 60.20111084 20.66552734 C60.20406184 23.65824751 60.19976532 26.65084837 60.19042969 29.64355469 C60.17903505 33.4839528 60.18559467 37.32407138 60.19757462 41.16445923 C60.20479393 44.11208206 60.20250498 47.05963837 60.19731903 50.00726318 C60.19598273 51.42348259 60.19762959 52.839708 60.20227814 54.25592041 C60.20734425 56.23343799 60.19825658 58.21097668 60.18847656 60.18847656 C60.18688538 61.31495605 60.18529419 62.44143555 60.18365479 63.60205078 C59.9296875 66.25878906 59.9296875 66.25878906 57.9296875 68.25878906 C55.27294922 68.51275635 55.27294922 68.51275635 51.859375 68.51757812 C49.94729248 68.52703461 49.94729248 68.52703461 47.99658203 68.53668213 C46.59928246 68.53310245 45.20198413 68.52900052 43.8046875 68.52441406 C42.37744073 68.52576077 40.95019441 68.52770135 39.52294922 68.5302124 C36.53022905 68.5331634 33.53762819 68.52886688 30.54492188 68.51953125 C26.70452377 68.50813662 22.86440518 68.51469623 19.02401733 68.52667618 C16.0763945 68.53389549 13.12883819 68.53160655 10.18121338 68.52642059 C8.76499397 68.52508429 7.34876856 68.52673116 5.93255615 68.5313797 C3.95503857 68.53644581 1.97749988 68.52735814 0 68.51757812 C-1.68971924 68.51519135 -1.68971924 68.51519135 -3.41357422 68.51275635 C-6.0703125 68.25878906 -6.0703125 68.25878906 -8.0703125 66.25878906 C-8.32427979 63.60205078 -8.32427979 63.60205078 -8.32910156 60.18847656 C-8.33540588 58.91375488 -8.34171021 57.6390332 -8.34820557 56.32568359 C-8.34462589 54.92838402 -8.34052396 53.5310857 -8.3359375 52.13378906 C-8.33728421 50.7065423 -8.33922479 49.27929597 -8.34173584 47.85205078 C-8.34468684 44.85933062 -8.34039032 41.86672975 -8.33105469 38.87402344 C-8.31966005 35.03362533 -8.32621967 31.19350674 -8.33819962 27.3531189 C-8.34541893 24.40549607 -8.34312998 21.45793975 -8.33794403 18.51031494 C-8.33660773 17.09409553 -8.33825459 15.67787013 -8.34290314 14.26165771 C-8.34796925 12.28414014 -8.33888158 10.30660145 -8.32910156 8.32910156 C-8.32751038 7.20262207 -8.32591919 6.07614258 -8.32427979 4.91552734 C-7.80781948 -0.48713644 -4.62149491 0.006528 0 0 Z M1.9296875 12.25878906 C1.4296875 15.25878906 1.4296875 15.25878906 1.9296875 18.25878906 C4.7672655 20.60893065 4.7672655 20.60893065 8.0546875 19.94628906 C10.81055172 19.55234585 10.81055172 19.55234585 11.9296875 18.25878906 C12.26309221 15.30074333 12.26309221 15.30074333 11.9296875 12.25878906 C7.83055142 9.52603168 6.02882358 9.52603168 1.9296875 12.25878906 Z M1.9296875 26.25878906 C1.9296875 36.81878906 1.9296875 47.37878906 1.9296875 58.25878906 C5.2296875 58.25878906 8.5296875 58.25878906 11.9296875 58.25878906 C11.9296875 47.69878906 11.9296875 37.13878906 11.9296875 26.25878906 C8.6296875 26.25878906 5.3296875 26.25878906 1.9296875 26.25878906 Z M17.9296875 26.25878906 C17.9296875 36.81878906 17.9296875 47.37878906 17.9296875 58.25878906 C21.2296875 58.25878906 24.5296875 58.25878906 27.9296875 58.25878906 C28.2596875 50.66878906 28.5896875 43.07878906 28.9296875 35.25878906 C35.9296875 34.25878906 35.9296875 34.25878906 38.9296875 36.25878906 C39.36206055 38.50537109 39.36206055 38.50537109 39.44140625 41.26660156 C39.49458008 42.74580078 39.49458008 42.74580078 39.54882812 44.25488281 C39.57138672 45.28742187 39.59394531 46.31996094 39.6171875 47.38378906 C39.66842773 48.94419922 39.66842773 48.94419922 39.72070312 50.53613281 C39.80334919 53.10996741 39.86818966 55.68436235 39.9296875 58.25878906 C43.2296875 58.25878906 46.5296875 58.25878906 49.9296875 58.25878906 C49.98412751 55.25853959 50.0235711 52.25929867 50.0546875 49.25878906 C50.07144531 48.41960938 50.08820312 47.58042969 50.10546875 46.71582031 C50.15871586 39.84694274 50.00960356 33.63583599 45.3046875 28.25878906 C40.88903293 25.64210487 38.99428131 25.61566604 33.9296875 26.25878906 C31.56675748 27.41511652 29.77984995 28.40862661 27.9296875 30.25878906 C27.5996875 28.93878906 27.2696875 27.61878906 26.9296875 26.25878906 C23.9596875 26.25878906 20.9896875 26.25878906 17.9296875 26.25878906 Z " fill="#FFFFFF" transform="translate(8.0703125,-0.2587890625)"/>
</svg>
